<?xml version="1.0" standalone="no"?>
<!DOCTYPE svg PUBLIC "-//W3C//DTD SVG 20010904//EN"
 "http://www.w3.org/TR/2001/REC-SVG-20010904/DTD/svg10.dtd">
<svg version="1.0" xmlns="http://www.w3.org/2000/svg"
 width="500.000000pt" height="500.000000pt" viewBox="0 0 500.000000 500.000000"
 preserveAspectRatio="xMidYMid meet">
<metadata>
Created by potrace 1.14, written by Peter Selinger 2001-2017
</metadata>
<g transform="translate(0.000000,500.000000) scale(0.100000,-0.100000)"
fill="#000000" stroke="none">
<path d="M290 4597 c0 -28 128 -266 183 -340 147 -198 345 -351 566 -436 82
-32 173 -59 224 -67 15 -2 42 -7 60 -11 17 -4 331 -8 697 -9 366 0 706 -4 755
-8 181 -13 246 -21 375 -41 14 -3 47 -7 74 -9 26 -3 56 -7 65 -10 9 -3 32 -7
51 -10 19 -3 82 -17 140 -31 58 -14 116 -28 130 -31 35 -7 288 -93 330 -111
306 -135 444 -228 669 -451 62 -61 110 -104 107 -94 -2 9 -19 71 -36 137 -79
297 -178 531 -304 718 -163 243 -400 454 -653 585 -171 88 -422 170 -618 201
-38 6 -86 14 -105 18 -19 4 -637 8 -1372 10 -1097 3 -1338 1 -1338 -10z"/>
<path d="M3614 3317 c138 -223 201 -399 223 -617 9 -90 9 -322 0 -400 -36
-298 -151 -549 -331 -723 -103 -99 -268 -194 -411 -235 -157 -46 -246 -53
-634 -54 -201 0 -380 1 -397 1 l-30 1 -1 213 c0 231 -3 262 -33 377 -69 269
-322 510 -601 574 -93 21 -256 28 -261 12 -3 -9 -2 -2051 1 -2066 1 -7 1759
-4 1787 3 11 3 54 8 95 12 40 4 76 8 79 10 3 2 21 6 40 9 159 25 405 108 560
189 91 47 277 171 344 229 350 303 570 715 653 1225 14 82 8 272 -11 363 -44
212 -131 373 -286 530 -184 186 -360 285 -758 424 -40 14 -77 26 -82 26 -6 0
19 -46 54 -103z"/>
</g>
</svg>
